<?xml version="1.0" encoding="utf-8"?>
<!-- Generator: Adobe Illustrator 26.0.3, SVG Export Plug-In . SVG Version: 6.00 Build 0)  -->
<svg version="1.1" id="Ebene_1" xmlns="http://www.w3.org/2000/svg" xmlns:xlink="http://www.w3.org/1999/xlink" x="0px" y="0px"
	 viewBox="0 0 1025 1025" style="enable-background:new 0 0 1025 1025;" xml:space="preserve">
<style type="text/css">
	.st0{fill:#005EB8;}
</style>
<g id="Ebene_1-2">
	<path id="Kreis" class="st0" d="M512.5,71.9c243.3,0,440.6,197.3,440.6,440.6S755.8,953.1,512.5,953.1
		c-243.3,0-440.6-197.3-440.6-440.6C71.9,269.1,269.2,71.9,512.5,71.9C512.5,71.9,512.5,71.9,512.5,71.9 M512.5,0
		C229.5,0,0,229.4,0,512.5S229.5,1025,512.5,1025S1025,795.6,1025,512.5S795.6,0,512.5,0z"/>
	<path class="st0" d="M368.5,443.5h92.8c-23.5-74.5-92.5-125.2-170.6-125.3h-95.1c-16.2,26.4-29.1,54.7-38.2,84.3h133.3
		C321.8,402.5,350.9,417.8,368.5,443.5z"/>
	<path class="st0" d="M461.3,580.5h-92.8c-17.6,25.7-46.7,41-77.8,41H157.4c9.1,29.6,21.9,57.9,38.2,84.3h95.1
		C368.8,705.7,437.8,655,461.3,580.5z"/>
	<path class="st0" d="M654.7,580.5H562c23.4,74.5,92.5,125.2,170.6,125.3h95.1c16.2-26.4,29.1-54.7,38.2-84.3H732.5
		C701.4,621.5,672.3,606.2,654.7,580.5z"/>
	<path class="st0" d="M732.5,318.2C654.4,318.3,585.4,369,562,443.5h92.7c17.6-25.6,46.7-41,77.8-41h133.3
		c-9.1-29.6-22-57.9-38.2-84.3H732.5z"/>
	<path class="st0" d="M225.9,512c0,23.3,18.9,42.2,42.2,42.1c0,0,0,0,0,0h485.2c23.3,0.5,42.5-18,43-41.3c0.5-23.3-18-42.5-41.3-43
		H268.1C244.8,469.8,225.9,488.7,225.9,512L225.9,512z"/>
</g>
</svg>
